HIERARCHY
ROOT Hips
{
	OFFSET -13.091600 -28.302996 44.698402
	CHANNELS 6 Xposition Yposition Zposition Zrotation Xrotation Yrotation
	JOINT Chest
	{
		OFFSET -0.673000 0.623899 5.369202
		CHANNELS 6 Xposition Yposition Zposition Zrotation Xrotation Yrotation
		JOINT Chest2
		{
			OFFSET 0.000000 0.000000 4.415001
			CHANNELS 6 Xposition Yposition Zposition Zrotation Xrotation Yrotation
			JOINT Neck
			{
				OFFSET 0.000000 0.000002 10.273300
				CHANNELS 6 Xposition Yposition Zposition Zrotation Xrotation Yrotation
				JOINT Head
				{
					OFFSET 0.000000 0.000000 2.173897
					CHANNELS 6 Xposition Yposition Zposition Zrotation Xrotation Yrotation
					End Site
					{
						OFFSET 0.000000 0.000000 9.961800
					}
				}
			}
			JOINT LeftCollar
			{
				OFFSET 2.359900 -0.565201 5.928101
				CHANNELS 6 Xposition Yposition Zposition Zrotation Xrotation Yrotation
				JOINT LeftShoulder
				{
					OFFSET 5.443700 0.000000 0.000000
					CHANNELS 6 Xposition Yposition Zposition Zrotation Xrotation Yrotation
					JOINT LeftElbow
					{
						OFFSET 0.000000 0.000000 -10.615799
						CHANNELS 6 Xposition Yposition Zposition Zrotation Xrotation Yrotation
						JOINT LeftWrist
						{
							OFFSET 0.000000 -0.000002 -13.110302
							CHANNELS 6 Xposition Yposition Zposition Zrotation Xrotation Yrotation
							End Site
							{
								OFFSET 0.000000 0.000000 -2.173901
							}
						}
					}
				}
			}
			JOINT RightCollar
			{
				OFFSET -2.636600 -1.718800 6.889698
				CHANNELS 6 Xposition Yposition Zposition Zrotation Xrotation Yrotation
				JOINT RightShoulder
				{
					OFFSET -4.139101 0.000000 0.000000
					CHANNELS 6 Xposition Yposition Zposition Zrotation Xrotation Yrotation
					JOINT RightElbow
					{
						OFFSET 0.000000 0.000000 -10.471802
						CHANNELS 6 Xposition Yposition Zposition Zrotation Xrotation Yrotation
						JOINT RightWrist
						{
							OFFSET 0.000000 0.000000 -12.281898
							CHANNELS 6 Xposition Yposition Zposition Zrotation Xrotation Yrotation
							End Site
							{
								OFFSET 0.000000 -0.000002 -2.173901
							}
						}
					}
				}
			}
		}
	}
	JOINT LeftHip
	{
		OFFSET 2.273400 0.176701 -2.518002
		CHANNELS 6 Xposition Yposition Zposition Zrotation Xrotation Yrotation
		JOINT LeftKnee
		{
			OFFSET 0.000000 -0.000002 -20.456402
			CHANNELS 6 Xposition Yposition Zposition Zrotation Xrotation Yrotation
			JOINT LeftAnkle
			{
				OFFSET 0.000000 -0.000002 -16.635300
				CHANNELS 6 Xposition Yposition Zposition Zrotation Xrotation Yrotation
				End Site
				{
					OFFSET 0.000000 -8.812399 0.000001
				}
			}
		}
	}
	JOINT RightHip
	{
		OFFSET -1.914800 0.018101 -2.699299
		CHANNELS 6 Xposition Yposition Zposition Zrotation Xrotation Yrotation
		JOINT RightKnee
		{
			OFFSET 0.000000 -0.000002 -20.148901
			CHANNELS 6 Xposition Yposition Zposition Zrotation Xrotation Yrotation
			JOINT RightAnkle
			{
				OFFSET 0.000000 -0.000002 -16.838301
				CHANNELS 6 Xposition Yposition Zposition Zrotation Xrotation Yrotation
				End Site
				{
					OFFSET 0.000000 -8.328398 0.000001
				}
			}
		}
	}
}
MOTION
Frames: 10
Frame Time: 0.041667
-29.192400 -34.936394 41.278503 780.468887 31.863881 -0.822852 -0.673000 0.623900 5.369203 -18.538373 45.560849 19.833717 0.000006 -0.000001 4.415012 2.581829 -8.157362 -0.853021 0.000003 0.000006 10.273308 4.889235 4.057897 -0.489675 -0.000003 -0.000001 2.173902 1.204105 -4.922993 0.292089 2.359901 -0.565187 5.928100 -24.604148 21.059775 9.701736 5.443688 0.000000 0.000001 -62.699955 -10.500151 -117.152238 0.000000 0.000003 -10.615796 611.786492 -127.185390 218.795698 0.000001 -0.000001 -13.110293 -142.917296 -164.704684 216.308908 -2.636600 -1.718793 6.889700 221.644515 -213.199669 154.161673 -4.139103 0.000009 0.000009 178.075558 -347.472186 211.292407 -0.000001 -0.000005 -10.471802 102.303461 73.155663 -155.032016 0.000001 0.000006 -12.281895 82.892036 -47.012639 23.625730 2.273403 0.176702 -2.518008 -101.379255 -132.019866 -106.870133 0.000005 -0.000008 -20.456394 63.254122 139.481260 -122.210171 -0.000008 0.000001 -16.635300 39.124365 11.958782 13.638521 -1.914795 0.018101 -2.699296 92.212786 213.950963 105.179640 0.000004 -0.000003 -20.148907 122.568742 62.318236 -71.876642 0.000003 -0.000002 -16.838305 -18.811056 15.742300 -1.524137
-29.695503 -34.686493 41.436703 781.693786 31.828087 -0.663508 -0.672998 0.623891 5.369207 -18.188625 45.820396 19.444425 0.000005 0.000003 4.415003 2.529694 -8.017990 -0.883356 -0.000005 -0.000004 10.273303 4.418110 4.357297 -0.438835 -0.000003 0.000001 2.173899 1.211172 -4.982767 0.030582 2.359890 -0.565206 5.928105 -24.545782 20.967812 9.681548 5.443694 0.000000 -0.000002 -62.895701 -10.401497 -116.552698 0.000003 0.000000 -10.615793 612.231055 -127.488554 219.225959 0.000004 -0.000006 -13.110299 -142.885481 -164.827819 216.519797 -2.636606 -1.718811 6.889700 222.767412 -213.526111 153.612730 -4.139101 -0.000002 -0.000007 177.298119 -347.055135 211.990671 0.000004 0.000000 -10.471807 103.260487 73.039441 -155.875217 0.000003 -0.000003 -12.281895 81.574076 -47.631789 23.509764 2.273399 0.176697 -2.518006 -101.654607 -132.069931 -107.448329 -0.000000 -0.000003 -20.456398 70.649728 135.652639 -127.657970 -0.000003 0.000002 -16.635296 34.679288 12.562532 10.575932 -1.914800 0.018102 -2.699295 93.955502 214.058948 107.575473 0.000005 -0.000004 -20.148905 121.142653 62.313045 -71.666047 0.000003 -0.000008 -16.838303 -18.931647 15.073232 -1.433815
-30.204599 -34.451096 41.583504 782.980047 31.794773 -0.596462 -0.672999 0.623899 5.369206 -18.065765 45.966616 19.192275 -0.000001 0.000003 4.415002 2.497186 -7.819849 -0.911497 -0.000007 -0.000004 10.273301 4.332473 4.625931 -0.465330 -0.000005 -0.000003 2.173897 1.107280 -4.986335 -0.118269 2.359892 -0.565205 5.928102 -24.191120 20.863317 9.186137 5.443696 0.000005 0.000004 -63.389688 -10.756759 -115.898570 0.000000 0.000005 -10.615796 612.661302 -128.008359 219.783111 0.000001 -0.000009 -13.110295 -143.219587 -164.891558 216.564781 -2.636608 -1.718814 6.889693 223.391268 -213.921784 154.128546 -4.139097 0.000007 -0.000008 176.830661 -346.878015 213.250814 -0.000006 -0.000001 -10.471792 104.589669 73.118254 -157.004930 0.000003 0.000005 -12.281895 81.269784 -48.164728 23.176613 2.273398 0.176707 -2.518004 -101.708934 -132.237954 -108.016880 0.000006 -0.000010 -20.456402 80.803808 131.597733 -134.878696 -0.000007 -0.000000 -16.635302 29.606094 13.074416 7.682750 -1.914797 0.018112 -2.699306 95.782687 214.229361 110.038500 0.000007 -0.000008 -20.148903 117.083676 62.792463 -69.026267 -0.000003 -0.000003 -16.838299 -19.169590 13.962167 -1.167604
-30.718603 -34.219498 41.710308 784.339091 31.751791 -0.662306 -0.672997 0.623896 5.369217 -18.164873 46.011279 19.093580 -0.000001 0.000005 4.415006 2.484172 -7.606207 -0.900547 -0.000002 -0.000003 10.273303 4.342183 4.864663 -0.492334 0.000002 -0.000005 2.173899 0.985328 -4.995397 -0.238307 2.359899 -0.565202 5.928096 -23.727326 20.791663 8.438396 5.443704 0.000008 -0.000008 -64.023816 -11.366944 -115.296544 0.000000 0.000002 -10.615795 612.785011 -128.836315 220.018015 0.000007 -0.000005 -13.110291 -143.755005 -164.795772 216.735508 -2.636599 -1.718808 6.889694 223.598086 -214.293292 155.213167 -4.139101 -0.000003 0.000000 176.679905 -346.908149 214.731845 0.000003 0.000003 -10.471798 106.350895 73.348527 -158.398166 0.000003 0.000000 -12.281898 81.347287 -48.392474 22.988586 2.273401 0.176698 -2.518000 -101.636726 -132.468199 -108.561704 0.000001 -0.000000 -20.456398 92.008351 128.590605 -142.843284 -0.000005 0.000003 -16.635296 24.937977 13.361755 5.973292 -1.914803 0.018102 -2.699297 97.462940 214.429022 112.326081 0.000002 -0.000004 -20.148901 110.907888 63.384798 -64.304114 -0.000000 -0.000008 -16.838301 -19.604158 12.538725 -0.718204
-31.235100 -33.982994 41.813099 785.694965 31.654034 -0.813518 -0.673006 0.623888 5.369208 -18.203567 46.071241 18.979755 0.000002 -0.000002 4.415002 2.451835 -7.436954 -0.890333 0.000006 -0.000005 10.273302 4.335862 5.115238 -0.450541 -0.000008 -0.000006 2.173903 0.977056 -4.921948 -0.437414 2.359904 -0.565206 5.928100 -23.338237 20.699428 7.823033 5.443700 -0.000001 -0.000003 -64.739880 -11.959932 -114.815712 0.000002 0.000001 -10.615793 612.804135 -129.917342 220.155889 0.000003 -0.000005 -13.110292 -144.552990 -164.582164 217.055120 -2.636592 -1.718811 6.889699 223.490224 -214.499263 156.339492 -4.139097 0.000002 -0.000005 176.677500 -347.125076 216.101052 -0.000003 0.000000 -10.471806 108.098488 73.480159 -159.747251 0.000004 0.000000 -12.281891 81.320116 -48.516070 22.764363 2.273395 0.176695 -2.518005 -101.497410 -132.710753 -109.124751 0.000001 -0.000003 -20.456394 101.071637 127.082213 -149.098289 -0.000006 -0.000001 -16.635296 22.279807 13.242379 5.947961 -1.914804 0.018099 -2.699303 98.840672 214.603833 114.202327 0.000002 -0.000008 -20.148903 104.007723 63.585824 -58.658484 0.000001 -0.000002 -16.838301 -20.523720 11.124744 -0.176259
-31.753199 -33.738293 41.890102 787.142583 31.021360 -1.090320 -0.672994 0.623893 5.369199 -18.580606 46.538935 19.121485 -0.000004 0.000004 4.415007 2.447323 -7.295371 -0.882999 0.000002 0.000003 10.273301 4.350401 5.385578 -0.274914 0.000005 -0.000001 2.173903 0.900887 -4.919108 -0.531378 2.359903 -0.565200 5.928092 -23.003338 20.568076 7.296858 5.443692 -0.000008 -0.000006 -65.371577 -12.578627 -114.272234 0.000001 -0.000001 -10.615788 612.475412 -130.741610 220.020529 0.000002 -0.000002 -13.110294 -145.067877 -164.334188 217.297879 -2.636597 -1.718804 6.889690 223.505414 -214.173163 157.571453 -4.139098 0.000007 -0.000000 176.371317 -347.776949 217.583066 0.000008 -0.000001 -10.471803 109.696301 73.514917 -160.920445 0.000000 0.000004 -12.281906 81.310451 -48.621040 22.628393 2.273403 0.176701 -2.518008 -101.819529 -133.128856 -110.266560 0.000006 -0.000004 -20.456394 105.962756 126.434902 -152.110048 -0.000007 0.000003 -16.635298 21.897819 12.726487 7.194894 -1.914792 0.018105 -2.699305 100.092126 214.751393 116.119554 0.000003 -0.000004 -20.148897 97.854139 63.271983 -53.511407 0.000004 -0.000000 -16.838303 -22.004052 9.935170 0.258883
-32.269707 -33.484192 41.943707 788.437587 30.754703 -1.333200 -0.672994 0.623901 5.369197 -18.654655 46.597958 19.003803 0.000000 -0.000002 4.415006 2.436250 -7.176505 -0.876318 0.000003 -0.000003 10.273301 4.311293 5.652139 0.080563 0.000006 -0.000001 2.173898 0.941070 -4.924074 -0.608364 2.359900 -0.565202 5.928102 -22.834625 20.412451 6.973472 5.443696 -0.000001 0.000001 -65.769824 -13.071642 -113.701770 -0.000000 -0.000005 -10.615794 612.160349 -131.341027 219.847110 0.000007 -0.000001 -13.110294 -145.347833 -164.150442 217.575690 -2.636600 -1.718803 6.889702 223.280291 -214.276886 158.678217 -4.139096 0.000010 -0.000005 176.501746 -348.040212 218.830395 0.000004 -0.000004 -10.471812 111.076218 73.474913 -161.874240 -0.000004 0.000001 -12.281892 81.333824 -48.599839 22.500038 2.273402 0.176706 -2.518009 -101.487144 -133.535485 -110.689431 -0.000001 -0.000003 -20.456400 105.554590 126.206801 -151.120626 -0.000003 -0.000006 -16.635302 23.540604 11.916268 9.506139 -1.914791 0.018108 -2.699300 100.773745 214.995299 116.962768 0.000010 -0.000002 -20.148899 92.477005 63.019362 -48.888308 -0.000004 0.000001 -16.838301 -23.329339 9.204290 0.544250
-32.778603 -33.220997 41.974903 789.711608 30.301356 -1.531840 -0.672997 0.623888 5.369202 -18.670442 46.792687 18.820036 0.000000 0.000007 4.415003 2.411886 -7.073422 -0.868124 -0.000001 -0.000002 10.273303 4.243194 5.916644 0.498041 0.000002 -0.000008 2.173901 0.984549 -4.973272 -0.666722 2.359897 -0.565201 5.928103 -22.735115 20.299203 6.746331 5.443689 0.000001 0.000005 -66.046509 -13.459362 -113.051413 -0.000003 -0.000003 -10.615791 611.844521 -131.685187 219.569108 0.000002 0.000005 -13.110298 -145.476691 -164.038058 217.744546 -2.636603 -1.718801 6.889704 223.182455 -214.367290 159.397095 -4.139098 0.000011 0.000005 176.600155 -348.219272 219.816729 -0.000002 -0.000000 -10.471804 112.130669 73.380192 -162.538667 0.000007 -0.000008 -12.281895 81.396853 -48.612693 22.367019 2.273396 0.176701 -2.518004 -101.185141 -133.918590 -111.125928 0.000001 0.000000 -20.456400 100.032765 126.294214 -146.273460 0.000001 0.000001 -16.635298 27.111831 10.971015 12.341661 -1.914796 0.018103 -2.699306 101.178229 215.206160 117.464910 0.000006 -0.000004 -20.148903 88.251870 62.885859 -45.130922 0.000000 -0.000003 -16.838301 -24.455815 9.023986 0.825588
-33.271896 -32.952995 41.988907 790.949839 29.663611 -1.674032 -0.672998 0.623899 5.369211 -18.623110 47.100479 18.575905 0.000003 0.000003 4.415008 2.355941 -6.942193 -0.857707 -0.000000 -0.000003 10.273300 4.147287 6.194131 0.943221 0.000010 -0.000003 2.173903 1.060943 -5.053110 -0.733175 2.359892 -0.565204 5.928102 -22.552578 20.199936 6.381988 5.443690 -0.000001 0.000006 -66.349653 -13.920101 -112.214400 0.000001 0.000002 -10.615797 611.441376 -131.773733 219.165116 0.000007 -0.000001 -13.110296 -145.418184 -164.024425 217.903498 -2.636602 -1.718800 6.889709 223.136543 -214.427655 160.098883 -4.139090 -0.000005 -0.000001 176.635918 -348.417129 220.837897 0.000006 0.000001 -10.471801 113.003984 73.273088 -163.108975 0.000005 -0.000006 -12.281891 81.385071 -48.621422 22.260071 2.273400 0.176705 -2.518000 -101.099005 -134.287038 -111.713843 0.000003 -0.000005 -20.456390 90.561191 127.172344 -138.484995 -0.000007 -0.000003 -16.635296 32.013442 9.982787 15.546549 -1.914793 0.018114 -2.699290 101.385655 215.395930 117.770165 0.000005 -0.000002 -20.148903 85.729345 62.834441 -42.805038 -0.000001 0.000001 -16.838297 -25.591889 9.163677 0.911219
-33.745308 -32.684998 41.989105 792.177525 28.905746 -1.753456 -0.673001 0.623892 5.369202 -18.518038 47.439977 18.288759 0.000003 0.000001 4.415003 2.240739 -6.741739 -0.841556 0.000000 0.000004 10.273302 4.058436 6.461232 1.262299 0.000004 -0.000002 2.173901 1.154144 -5.127048 -0.768546 2.359900 -0.565192 5.928101 -22.213573 20.216610 5.562941 5.443697 -0.000002 -0.000000 -66.733749 -14.713827 -111.149294 0.000000 -0.000001 -10.615794 610.929166 -131.593375 218.617102 0.000004 0.000000 -13.110299 -145.125619 -164.093901 218.022712 -2.636605 -1.718806 6.889706 223.057422 -214.403586 161.015726 -4.139107 0.000004 0.000003 176.638186 -348.767409 222.052032 0.000001 0.000004 -10.471804 113.653719 73.207518 -163.555259 0.000000 -0.000000 -12.281893 81.205191 -48.688669 22.073595 2.273398 0.176698 -2.518009 -101.176528 -134.609314 -112.367158 -0.000004 -0.000009 -20.456394 79.604468 128.973233 -129.577090 -0.000001 -0.000003 -16.635300 37.448568 9.158418 18.582974 -1.914797 0.018097 -2.699303 101.439422 215.564117 118.007787 0.000001 -0.000003 -20.148901 84.082914 62.950992 -41.290006 0.000003 -0.000001 -16.838299 -26.553626 9.459109 0.962940
